<svg width="120" height="120" viewBox="0 0 120 120" fill="none" xmlns="http://www.w3.org/2000/svg">
<path d="M40 36.25C42.0711 36.25 43.75 37.9289 43.75 40V46.25H50C52.0711 46.25 53.75 47.9289 53.75 50C53.75 52.0711 52.0711 53.75 50 53.75H43.75V60C43.75 62.0711 42.0711 63.75 40 63.75C37.9289 63.75 36.25 62.0711 36.25 60V53.75H30C27.9289 53.75 26.25 52.0711 26.25 50C26.25 47.9289 27.9289 46.25 30 46.25H36.25V40C36.25 37.9289 37.9289 36.25 40 36.25Z" fill="#068506"/>
<path d="M85 58.75C85 55.9886 82.7614 53.75 80 53.75C77.2386 53.75 75 55.9886 75 58.75V60C75 62.7614 77.2386 65 80 65C82.7614 65 85 62.7614 85 60V58.75Z" fill="#068506"/>
<path d="M80 35C82.7614 35 85 37.2386 85 40V41.25C85 44.0114 82.7614 46.25 80 46.25C77.2386 46.25 75 44.0114 75 41.25V40C75 37.2386 77.2386 35 80 35Z" fill="#068506"/>
<path d="M95 50C95 52.7614 92.7614 55 90 55H88.75C85.9886 55 83.75 52.7614 83.75 50C83.75 47.2386 85.9886 45 88.75 45H90C92.7614 45 95 47.2386 95 50Z" fill="#068506"/>
<path d="M71.25 55C74.0114 55 76.25 52.7614 76.25 50C76.25 47.2386 74.0114 45 71.25 45H70C67.2386 45 65 47.2386 65 50C65 52.7614 67.2386 55 70 55H71.25Z" fill="#068506"/>
<path fill-rule="evenodd" clip-rule="evenodd" d="M63.75 15C63.75 12.9289 62.0711 11.25 60 11.25C57.9289 11.25 56.25 12.9289 56.25 15V22.4344C49.0545 22.5327 41.8619 22.9141 34.6889 23.5785L33.0309 23.7321C21.0724 24.8399 11.8639 34.7703 11.6604 46.7783L11.6 50.3456C11.3634 64.301 12.4884 78.2462 14.9587 91.9833C16.1835 98.7941 22.1102 103.75 29.0302 103.75H30.1355C36.3123 103.75 41.9088 100.11 44.4131 94.4636L49.7161 82.5071C53.6717 73.5887 66.3283 73.5887 70.2839 82.5071L75.5869 94.4636C78.0912 100.11 83.6878 103.75 89.8645 103.75H90.9698C97.8898 103.75 103.816 98.7941 105.041 91.9833C107.512 78.2462 108.637 64.301 108.4 50.3456L108.34 46.7783C108.136 34.7703 98.9277 24.8399 86.9692 23.7321L85.3111 23.5785C78.1382 22.9141 70.9455 22.5327 63.75 22.4344V15ZM35.3806 31.0466C51.7585 29.5295 68.2415 29.5295 84.6194 31.0466L86.2774 31.2002C94.4267 31.955 100.702 38.7223 100.841 46.9054L100.901 50.4727C101.129 63.9406 100.044 77.3987 97.6597 90.6559C97.0774 93.8939 94.2597 96.25 90.9698 96.25H89.8645C86.6538 96.25 83.7446 94.3578 82.4428 91.4228L77.1398 79.4663C70.5472 64.6023 49.4528 64.6023 42.8602 79.4663L37.5572 91.4228C36.2554 94.3578 33.3463 96.25 30.1355 96.25H29.0302C25.7403 96.25 22.9226 93.8938 22.3403 90.6558C19.9562 77.3987 18.8706 63.9406 19.0989 50.4727L19.1593 46.9054C19.298 38.7224 25.5733 31.955 33.7226 31.2002L35.3806 31.0466Z" fill="#068506"/>
</svg>
