<svg width="140" height="140" viewBox="0 0 140 140" fill="none" xmlns="http://www.w3.org/2000/svg">
<g clip-path="url(#clip0_301_28)">
<g filter="url(#filter0_d_301_28)">
<path d="M70 81.6279L122.326 52.5581L70 23.4883L17.6744 52.5581L70 81.6279ZM70 81.6279L105.809 61.734C108.964 69.6894 110.698 78.363 110.698 87.4415C110.698 91.5189 110.348 95.5146 109.677 99.4003C94.5017 100.876 80.7502 107.213 70 116.835C59.2498 107.213 45.4983 100.876 30.3234 99.4003C29.6521 95.5145 29.3023 91.5187 29.3023 87.4411C29.3023 78.3627 31.0363 69.6893 34.1911 61.734L70 81.6279ZM46.7442 116.511V72.9069L70 59.987" stroke="#00FF01" stroke-width="10" stroke-linecap="round" stroke-linejoin="round" shape-rendering="crispEdges"/>
</g>
</g>
<defs>
<filter id="filter0_d_301_28" x="-7.32558" y="-1.51166" width="154.651" height="143.346" filterUnits="userSpaceOnUse" color-interpolation-filters="sRGB">
<feFlood flood-opacity="0" result="BackgroundImageFix"/>
<feColorMatrix in="SourceAlpha" type="matrix" values="0 0 0 0 0 0 0 0 0 0 0 0 0 0 0 0 0 0 127 0" result="hardAlpha"/>
<feOffset/>
<feGaussianBlur stdDeviation="10"/>
<feComposite in2="hardAlpha" operator="out"/>
<feColorMatrix type="matrix" values="0 0 0 0 0 0 0 0 0 1 0 0 0 0 0.00392157 0 0 0 1 0"/>
<feBlend mode="normal" in2="BackgroundImageFix" result="effect1_dropShadow_301_28"/>
<feBlend mode="normal" in="SourceGraphic" in2="effect1_dropShadow_301_28" result="shape"/>
</filter>
<clipPath id="clip0_301_28">
<rect width="139.535" height="139.535" fill="white" transform="translate(0.232559 0.232544)"/>
</clipPath>
</defs>
</svg>
